<?xml version="1.0" encoding="UTF-8"?>
<svg width="16px" height="21px" viewBox="0 0 16 21" version="1.1" xmlns="http://www.w3.org/2000/svg" xmlns:xlink="http://www.w3.org/1999/xlink">
    <title>059E728F-FED9-482A-80B8-0E2DC7C61515</title>
    <g id="FE-Assignments" stroke="none" stroke-width="1" fill="none" fill-rule="evenodd">
        <g id="FE1a" transform="translate(-264.000000, -24.000000)">
            <g id="bell-icon" transform="translate(264.000000, 24.000000)">
                <path d="M8,0.5 C8.41421356,0.5 8.78921356,0.667893219 9.06066017,0.939339828 C9.33210678,1.21078644 9.5,1.58578644 9.5,2 C10.8912379,2.99914647 11.849108,3.81668881 12.5152904,4.81596236 C13.1339028,5.74388099 13.5,6.82904404 13.5,8.00003081 L13.5,8.00003081 L13.5004622,15.5000965 C14.1259038,15.499804 14.6837545,15.7872249 15.0504231,16.2364737 C15.3315307,16.5808917 15.5,17.0207866 15.5,17.5 L15.5,17.5 L0.5,17.5 L0.507792773,17.3221931 C0.538745567,16.9707068 0.660592083,16.6453033 0.849756373,16.3696964 L0.949839185,16.2361524 C1.31672129,15.7868311 1.87488374,15.4994756 2.50061071,15.5000972 L2.50061071,15.5000972 L2.5,8 C2.5,6.81420549 2.87514587,5.71599605 3.51347897,4.81779698 C4.1694996,3.89470978 5.10312427,3.18257697 6.19279431,2.80365593 C6.51744111,1.76705097 6.66798005,1.30768963 6.93994668,0.986064327 C7.20479542,0.672856567 7.58249552,0.5 8,0.5 Z" id="Combined-Shape" stroke="#9BA4B0"></path>
                <path d="M8.5,21 C9.42047458,21 10.2538079,20.1666667 11,18.5 L6,18.5 C6.74619208,20.1666667 7.57952542,21 8.5,21 Z" id="Oval-4" fill="#9BA4B0"></path>
            </g>
        </g>
    </g>
</svg>