<?xml version="1.0" encoding="UTF-8"?>
<svg width="17px" height="17px" viewBox="0 0 17 17" version="1.1" xmlns="http://www.w3.org/2000/svg" xmlns:xlink="http://www.w3.org/1999/xlink">
    <title>D781330F-4148-412D-9839-09F95EF4ED02</title>
    <g id="FE-Assignments" stroke="none" stroke-width="1" fill="none" fill-rule="evenodd" stroke-linecap="round" stroke-linejoin="round">
        <g id="FE1" transform="translate(-31.000000, -345.000000)" stroke="#FFFFFF" stroke-width="1.0625">
            <g id="Tabs" transform="translate(20.000000, 101.000000)">
                <g id="Account" transform="translate(11.000000, 241.000000)">
                    <g id="settings" transform="translate(0.000000, 3.000000)">
                        <path d="M7.47008333,1.72691667 C7.73295237,2.01871244 8.10725975,2.18530756 8.5,2.18530756 C8.89274025,2.18530756 9.26704763,2.01871244 9.52991667,1.72691667 L10.2,0.991666667 C10.5935234,0.556142355 11.2185132,0.415337299 11.7607794,0.640035888 C12.3030457,0.864734477 12.6452718,1.4063243 12.6154167,1.99254167 L12.565125,2.98420833 C12.5454548,3.3754013 12.6921149,3.75667219 12.9688771,4.03383919 C13.2456392,4.31100619 13.6266954,4.45822336 14.0179167,4.439125 L15.0095833,4.38883333 C15.5954049,4.35995172 16.1361164,4.70252178 16.360238,5.24454628 C16.5843595,5.78657079 16.4434805,6.41097151 16.0083333,6.80425 L15.27025,7.47008333 C14.9788265,7.73331305 14.812514,8.10764879 14.812514,8.50035417 C14.812514,8.89305955 14.9788265,9.26739528 15.27025,9.530625 L16.0083333,10.1964583 C16.4438576,10.5899818 16.5846627,11.2149715 16.3599641,11.7572378 C16.1352655,12.299504 15.5936757,12.6417301 15.0074583,12.611875 L14.0157917,12.5615833 C13.6237124,12.541415 13.241454,12.6883621 12.9638456,12.9659706 C12.6862371,13.243579 12.53929,13.6258374 12.5594583,14.0179167 L12.60975,15.0095833 C12.635729,15.5927045 12.2940137,16.1297422 11.7547931,16.3532287 C11.2155724,16.5767153 10.5941416,16.438865 10.2,16.0083333 L9.53345833,15.2709583 C9.2703569,14.9795689 8.89613581,14.813266 8.50354167,14.813266 C8.11094752,14.813266 7.73672643,14.9795689 7.473625,15.2709583 L6.80425,16.0083333 C6.41069893,16.4409176 5.78817744,16.5803271 5.24771886,16.3569079 C4.70726028,16.1334887 4.36488943,15.5952042 4.39166667,15.011 L4.44266667,14.0193333 C4.46283498,13.627254 4.31588792,13.2449957 4.03827944,12.9673872 C3.76067097,12.6897787 3.37841263,12.5428317 2.98633333,12.563 L1.99466667,12.6132917 C1.40868481,12.6438769 0.866865555,12.3023866 0.641666806,11.7605419 C0.416468057,11.2186971 0.556628207,10.5937661 0.991666667,10.2 L1.72904167,9.53416667 C2.02046512,9.27093695 2.18677764,8.89660121 2.18677764,8.50389583 C2.18677764,8.11119045 2.02046512,7.73685472 1.72904167,7.473625 L0.991666667,6.80425 C0.558087476,6.41094666 0.418134958,5.78776264 0.641907452,5.24683353 C0.865679945,4.70590442 1.40498847,4.36371828 1.98970833,4.39166667 L2.981375,4.44195833 C3.37421238,4.46261205 3.75734048,4.31547302 4.03536698,4.03717633 C4.31339348,3.75887964 4.46016029,3.37560879 4.439125,2.98279167 L4.39166667,1.99041667 C4.36424658,1.40594912 4.70638969,0.867084091 5.24700673,0.64328197 C5.78762377,0.419479848 6.41053397,0.558836611 6.80425,0.991666667 L7.47008333,1.72691667 Z" id="Path"></path>
                        <circle id="Oval" cx="8.5" cy="8.50070833" r="3.1875"></circle>
                    </g>
                </g>
            </g>
        </g>
    </g>
</svg>