<?xml version="1.0" encoding="UTF-8"?>
<svg width="17px" height="17px" viewBox="0 0 17 17" version="1.1" xmlns="http://www.w3.org/2000/svg" xmlns:xlink="http://www.w3.org/1999/xlink">
    <title>FFD686BE-7029-4102-8599-6B716327926D</title>
    <g id="FE-Assignments" stroke="none" stroke-width="1" fill="none" fill-rule="evenodd" stroke-linecap="round" stroke-linejoin="round">
        <g id="FE1" transform="translate(-31.000000, -149.000000)" stroke="#FFFFFF" stroke-width="1.04615385">
            <g id="Tabs" transform="translate(20.000000, 101.000000)">
                <g id="Dashboard" transform="translate(11.000000, 45.000000)">
                    <g id="layout-dashboard" transform="translate(0.000000, 3.000000)">
                        <path d="M7.32307839,8.73608205 C7.3238485,9.11251991 7.01951381,9.4184153 6.64307692,9.41956923 L1.20307692,9.41956923 C1.0222385,9.41919989 0.848963837,9.34695983 0.72141895,9.21876087 C0.593874063,9.09056191 0.522521258,8.91692 0.523073702,8.73608205 L0.523073702,1.21074872 C0.522706602,1.02984648 0.594214779,0.856206449 0.721870393,0.728027656 C0.849526006,0.599848864 1.02287211,0.527631103 1.20377436,0.527261538 L6.64377436,0.536328205 C7.01993856,0.537865929 7.32384932,0.843648831 7.32307839,1.21981538 L7.32307839,8.73608205 Z" id="Path"></path>
                        <path d="M16.2125949,4.56402051 C16.2099077,4.93699297 15.9055698,5.23727301 15.5325949,5.23497162 L10.0925949,5.23497162 C9.91342102,5.23625297 9.74107988,5.16627241 9.61353406,5.0404272 C9.48598823,4.91458198 9.41370077,4.74319566 9.41259487,4.56402051 L9.41259487,1.20726154 C9.41489933,0.834675074 9.71861142,0.534396525 10.0912,0.536328205 L15.5312,0.527243378 C15.9045614,0.524554489 16.2095253,0.824836251 16.2125949,1.19819487 L16.2125949,4.56402051 Z" id="Path"></path>
                        <path d="M7.32307692,15.5465436 C7.32197052,15.726152 7.2495585,15.8979642 7.12177142,16.0241817 C6.99398435,16.1503992 6.82129041,16.2206825 6.64168205,16.2195823 L1.20168205,16.2105026 C0.828709295,16.2120471 0.524998265,15.9111454 0.523076923,15.5381744 L0.523076923,12.1842051 C0.523998971,12.0048455 0.596182819,11.833209 0.723728373,11.7071024 C0.851273927,11.5809958 1.02371835,11.510764 1.20307692,11.5118639 L6.64307692,11.5118639 C7.01643587,11.5099453 7.32077245,11.8108483 7.32307692,12.1842051 L7.32307692,15.5465436 Z" id="Path"></path>
                        <path d="M10.0932923,16.2195692 C9.91226891,16.2191999 9.73881686,16.1468864 9.61114117,16.0185566 C9.48346549,15.8902268 9.41203921,15.7164075 9.41259165,15.5353846 L9.41259165,8.01144615 C9.41203911,7.83054377 9.48336973,7.65682999 9.61089466,7.5285203 C9.73841958,7.40021061 9.91169248,7.3278156 10.0925949,7.32726154 L15.5325949,7.32726154 C15.7134973,7.3278156 15.8867702,7.40021061 16.0142951,7.5285203 C16.14182,7.65682999 16.2131506,7.83054377 16.2125981,8.01144615 L16.2125981,15.5263179 C16.2133685,15.9025987 15.909569,16.2085816 15.5332923,16.2105026 L10.0932923,16.2195692 Z" id="Path"></path>
                    </g>
                </g>
            </g>
        </g>
    </g>
</svg>