<?xml version="1.0" encoding="UTF-8"?>
<svg width="17px" height="17px" viewBox="0 0 17 17" version="1.1" xmlns="http://www.w3.org/2000/svg" xmlns:xlink="http://www.w3.org/1999/xlink">
    <title>AEF7B062-4410-4E54-82E1-D8FB31D5300E</title>
    <g id="FE-Assignments" stroke="none" stroke-width="1" fill="none" fill-rule="evenodd" stroke-linecap="round" stroke-linejoin="round">
        <g id="FE1" transform="translate(-32.000000, -525.000000)" stroke="#FFFFFF" stroke-width="1.0625">
            <g id="Tabs" transform="translate(20.000000, 101.000000)">
                <g id="Log-Out" transform="translate(12.000000, 421.000000)">
                    <g id="content-paper-edit" transform="translate(0.000000, 3.000000)">
                        <path d="M16.0274583,10.5329167 L10.625,15.9375 L7.96875,16.46875 L8.5,13.8125 L13.9052917,8.40791667 C14.1860582,8.12662948 14.567172,7.96856015 14.9646042,7.96856015 C15.3620363,7.96856015 15.7431501,8.12662948 16.0239167,8.40791667 L16.0302917,8.41358333 C16.6146161,8.9996575 16.6133477,9.94840695 16.0274583,10.5329167 Z" id="Path"></path>
                        <path d="M5.84091667,14.34375 L1.59091667,14.34375 C1.00411412,14.34375 0.528416667,13.8680525 0.528416667,13.28125 L0.528416667,1.59375 C0.528416667,1.00694745 1.00411412,0.53125 1.59091667,0.53125 L12.2159167,0.53125 C12.8027192,0.53125 13.2784167,1.00694745 13.2784167,1.59375 L13.2784167,6.375" id="Path"></path>
                        <line x1="5.84091667" y1="3.71875" x2="10.0909167" y2="3.71875" id="Path"></line>
                        <line x1="3.71591667" y1="6.90625" x2="10.0909167" y2="6.90625" id="Path"></line>
                        <line x1="3.71591667" y1="10.09375" x2="9.02841667" y2="10.09375" id="Path"></line>
                    </g>
                </g>
            </g>
        </g>
    </g>
</svg>