<?xml version="1.0" encoding="UTF-8"?>
<svg width="12px" height="22px" viewBox="0 0 12 22" version="1.1" xmlns="http://www.w3.org/2000/svg" xmlns:xlink="http://www.w3.org/1999/xlink">
    <title>ECFDB66E-B9CE-416D-82AC-B7068144A098</title>
    <defs>
        <path d="M3.77504928,7.27783203 C3.77504928,6.27507031 4.70042428,5.62710156 6.13252975,5.62710156 C7.28091257,5.62710156 8.45782663,6.15402734 9.41796335,6.84453516 C9.6706196,7.02625 10.0251118,6.94568359 10.1731391,6.67192969 L11.1851391,4.80068359 C11.2989633,4.59022266 11.2537173,4.32841406 11.0744946,4.16990234 C10.0311704,3.2470625 8.53353757,2.70509766 7.15192038,2.54542578 L7.15192038,0.515625 C7.15192038,0.230871094 6.92104928,0 6.63629538,0 L4.91754538,0 C4.63279147,0 4.40192038,0.230871094 4.40192038,0.515625 L4.40192038,2.65684375 C1.88279147,3.22789844 0.221103972,5.05952734 0.221103972,7.32492578 C0.221103972,12.6329844 8.16022507,12.086293 8.16022507,14.6044336 C8.16022507,15.4562031 7.45936178,16.3729414 5.92052194,16.3729414 C4.59918991,16.3729414 3.21641257,15.6905977 2.14580319,14.8309219 C1.91763913,14.6477031 1.583686,14.6884805 1.40850241,14.922875 L0.102725066,16.6702852 C-0.0531225907,16.8788555 -0.0294038407,17.1711719 0.158670378,17.3512109 C1.19202585,18.3403516 2.70452585,19.1238867 4.40187741,19.4125508 L4.40187741,21.484375 C4.40187741,21.7691289 4.6327485,22 4.91750241,22 L6.63625241,22 C6.92100632,22 7.15187741,21.7691289 7.15187741,21.484375 L7.15187741,19.4460234 C9.97578366,19.0070977 11.7141274,16.902875 11.7141274,14.4394766 C11.7141274,9.29663281 3.77504928,9.98331641 3.77504928,7.27783203 Z" id="path-1"></path>
    </defs>
    <g id="FE-Assignments" stroke="none" stroke-width="1" fill="none" fill-rule="evenodd">
        <g id="FE1" transform="translate(-34.000000, -612.000000)">
            <g id="Tabs" transform="translate(20.000000, 101.000000)">
                <g id="Contact-Us" transform="translate(14.000000, 511.000000)">
                    <mask id="mask-2" fill="white">
                        <use xlink:href="#path-1"></use>
                    </mask>
                    <path stroke="#FFFFFF" d="M6.64160017,0.500927554 C6.65016317,0.507409145 6.65192038,0.511310547 6.65192038,0.515625 L6.65192038,0.515625 L6.65192038,3.00444252 C8.0471426,3.07991309 9.66008625,3.58635942 10.7432445,4.54443319 L10.7432445,4.54443319 C10.7478067,4.55549358 10.7472087,4.55936981 10.7453366,4.5628313 L10.7453366,4.5628313 L9.733321,6.4341062 C9.7311874,6.43805196 9.72758563,6.44064152 9.723577,6.44155775 C9.71899232,6.44260564 9.71403721,6.44158831 9.70989553,6.43860954 C8.66444441,5.68674561 7.38015473,5.12710156 6.13252975,5.12710156 C5.29300953,5.12710156 4.6089121,5.33148949 4.12996495,5.66685289 C3.57970832,6.05214787 3.27504928,6.60739936 3.27504928,7.27783203 C3.27504928,7.92016758 3.58915204,8.43417974 4.15492333,8.86347351 C4.74872932,9.31403933 5.64621718,9.66799054 6.62560799,10.0434403 C7.87325418,10.5217259 9.26911327,11.0398802 10.2058404,11.9677089 C10.8155681,12.5716446 11.2141274,13.3590789 11.2141274,14.4394766 C11.2141274,15.5667867 10.8101686,16.6111078 10.0767275,17.4159754 C9.28251004,18.287538 8.10586702,18.8751649 6.65187741,19.0032922 L6.65187741,19.0032922 L6.65187741,21.484375 C6.65187741,21.4886895 6.6501202,21.4925909 6.64729423,21.4954168 C6.64446826,21.4982428 6.64056686,21.5 6.63625241,21.5 L6.63625241,21.5 L4.91750241,21.5 C4.91318796,21.5 4.90928655,21.4982428 4.90646059,21.4954168 C4.90363462,21.4925909 4.90187741,21.4886895 4.90187741,21.484375 L4.90187741,21.484375 L4.90187741,18.9793029 C3.14314358,18.7738454 1.55757289,17.9981133 0.504424066,16.9900262 L0.504424066,16.9900262 L0.500060807,16.980662 C0.499744969,16.9768179 0.50079841,16.9728649 0.503250382,16.9695835 L0.503250382,16.9695835 L1.80900404,15.222205 C1.81145329,15.2189279 1.81499778,15.2169691 1.81875088,15.216501 C1.82364024,15.2158913 1.82864395,15.2174935 1.83274824,15.2207893 C2.99214822,16.151762 4.49336345,16.8729414 5.92052194,16.8729414 C6.76422892,16.8729414 7.39089543,16.6299637 7.82824915,16.2846217 C8.39607072,15.8362601 8.66022507,15.2063353 8.66022507,14.6044336 C8.66022507,14.0116564 8.36326686,13.5254284 7.81235903,13.1135249 C7.24985193,12.6929488 6.39789924,12.3502187 5.45794047,11.9820879 C4.1900987,11.4855432 2.74420312,10.9362143 1.77196177,9.95084871 C1.13784417,9.30817117 0.721103972,8.47040051 0.721103972,7.32492578 C0.721103972,6.32219064 1.08861689,5.41558864 1.73353663,4.69550483 C2.47469073,3.86797074 3.57639228,3.28748475 4.90192038,3.06829569 L4.90192038,3.06829569 L4.901,0.626 L6.64160017,0.500927554 L6.64160017,0.500927554 Z"></path>
                </g>
            </g>
        </g>
    </g>
</svg>